<svg xmlns="http://www.w3.org/2000/svg" viewBox="0 0 138 45" enable-background="new 0 0 138 45"><path fill="#fff" d="m23.075325 0c-12.7441816 0-23.075325 10.3580618-23.075325 23.1353912 0 10.1273499 6.492991 18.7289391 15.5307312 21.8637009l.3402328-3.8630791 13.9362106-5.3332977.8099671 9.1972847c9.0391579-3.1339645 15.5334473-11.7362404 15.5334473-21.8646088 0-12.7773294-10.3311997-23.1353912-23.075264-23.1353912m-6.861866 14.6780806h1.9607372l-.5518665-5.6352634 5.466465-4.1756511 5.4394093 4.1756511-.5518646 5.6352634h1.9607906v3.2884092h-1.7007046l.2423077 2.7511368-11.1863899 4.2809772.6193352-7.032114h-1.6982194v-3.2884092zm.1621647 20.7283525l.4120579-4.678278 12.1626587-4.654583.3851719 4.3732243-12.9598885 4.9596367m3.4283562-20.7283525l-.4636803-5.0195646h7.3542404l-.4636803 5.0195646h-6.4268798m34.028986-1.815939h3.8734856v8.8238306h10.0714645v-8.8238306h3.8734894v22.1836004h-3.8734894v-10.004404h-10.0714646v10.004404h-3.8734856v-22.1836004m35.3894616 18.6106539c0 .8699398.1861191 1.2116718.836792 1.2116718.2168884 0 .4958191 0 .8678055-.0620728v2.4544487c-.5268326.1863518-1.6425552.4038086-2.2314301.4038086-1.425415 0-2.4480743-.4971123-2.7267456-1.9573402-1.3946457 1.3670502-3.6568527 1.9573402-5.5470657 1.9573402-2.8818512 0-5.4850235-1.5534096-5.4850235-4.6914482 0-4.0079803 3.191803-4.6603413 6.1667099-5.0022011 2.5411301-.4660091 4.8033295-.1863518 4.8033295-2.2679691 0-1.8330612-1.8904572-2.174921-3.3158722-2.174921-1.9832764 0-3.3776703.807869-3.5327759 2.5477543h-3.5325089c.2479095-4.1322613 3.7494049-5.343935 7.2821732-5.343935 3.1300125 0 6.4146118 1.2737522 6.4146118 4.6603451v8.2645187m-3.5325165-4.4739914c-1.0846863.7145653-2.789032.6834621-4.3385315.9631176-1.5184708.2485561-2.8818512.8077431-2.8818512 2.6720314 0 1.584507 2.0142975 2.0505142 3.2538376 2.0505142 1.5492477 0 3.9665451-.8077393 3.9665451-3.044733v-2.6409302zm7.3449707-8.0159645h3.3156281v3.1069393h.0620422c.4027557-1.708786 2.5101166-3.5418472 4.6792526-3.5418472.8057709 0 1.0226593.0620766 1.3326035.0931759v3.4175701c-.4958191-.0620766-1.0226517-.1552525-1.5184708-.1552525-2.4170532 0-4.3385391 1.9573402-4.3385391 5.4993134v7.6430035h-3.5325165v-16.0629025m11.0008087-6.120698h3.5327682v8.2023153h.0620422c.9606171-1.5534058 2.9749146-2.5165253 4.7720566-2.5165253 5.0512543 0 7.4993286 3.8526039 7.4993286 8.5440483 0 4.3186131-2.1691513 8.3886719-6.9104385 8.3886719-2.1691437 0-4.4933853-.5280838-5.5470657-2.6408043h-.0617905v2.2058945h-3.3469009v-22.1836004m7.9020691 8.4819708c-2.9748993 0-4.4933777 2.2680988-4.4933777 5.685667 0 3.2312164 1.6425552 5.6546879 4.4933777 5.6546879 3.2228241 0 4.4313431-2.8583832 4.4313431-5.6546879 0-2.9204597-1.518219-5.685667-4.4313431-5.685667m24.3576355 10.1286831c0 .8699398.186142 1.2116718.8368073 1.2116718.2168884 0 .4958038 0 .8677979-.0620728v2.4544487c-.5268402.1863518-1.6425629.4038086-2.2314301.4038086-1.425415 0-2.4480743-.4971123-2.7267456-1.9573402-1.3946533 1.3670502-3.6568604 1.9573402-5.5470657 1.9573402-2.8818512 0-5.4850311-1.5534096-5.4850311-4.6914482 0-4.0079803 3.191803-4.6603413 6.1667099-5.0022011 2.5411377-.4660091 4.8033447-.1863518 4.8033447-2.2679691 0-1.8330612-1.8904724-2.174921-3.3158722-2.174921-1.983284 0-3.3776779.807869-3.5327759 2.5477543h-3.5325165c.2479095-4.1322613 3.7494049-5.343935 7.2821808-5.343935 3.1300049 0 6.4145966 1.2737522 6.4145966 4.6603451v8.2645187zm-3.5325012-4.4739914c-1.0847015.7145653-2.7890472.6834621-4.3385468.9631176-1.5184631.2485561-2.8818359.8077431-2.8818359 2.6720314 0 1.584507 2.0142822 2.0505142 3.25383 2.0505142 1.5492554 0 3.9665527-.8077393 3.9665527-3.044733v-2.6409302"/></svg>